# xmcd
#
# Track frame offsets:
#	150
#	14075
#	25897
#	43497
#	56975
#	93087
#	117317
#	125022
#	138817
#	159157
#	173297
#	185345
#	200152
#	221895
#	257967
#	306142
#	329130
#
# Disc length: 4660
#
# Revision: 1
# Processed by: cddbd v1.5.1PL0 Copyright (c) Steve Scherf et al.
# Submitted via: CDex 1.51
# Normalized: r0:TDELIM( - ),TSWAP
#
DISCID=02123211
DTITLE=Blues - Archive Series
DYEAR=1997
DGENRE=Blues
TTITLE0=Leadbelly - Alabama Bound
TTITLE1=Robert Johnsson - Hellhound on my Trail
TTITLE2=Muddy Waters - Walking Blues
TTITLE3=John Lee Hooker - Wandering Blues
TTITLE4=Albert Collins - How blue can you get
TTITLE5=Buddy Guy and Junior Wells - Country Girl
TTITLE6=Peter Green - Coming, I'm coming
TTITLE7=Lowell Fulson - Step at a time
TTITLE8=Jimmy Witherspoon - Help me operator
TTITLE9=Alexis Corner - River's Invitation
TTITLE10=Duster Bennett - Morning Star
TTITLE11=Paul Jones - Work Song
TTITLE12=Alan Price - Boom Boom Boom Boom
TTITLE13=Paul Lamb and The King Snakes - Fine Condition
TTITLE14=Mick Abraham's Blodwyn Pig - I Wonder Who
TTITLE15=Stan Webb's Chicken Shack - Going Up Going Down
TTITLE16=Ruby Turner - Wang Dang Doodle
EXTD=YEAR: 1997
EXTT0=
EXTT1=
EXTT2=
EXTT3=
EXTT4=
EXTT5=
EXTT6=
EXTT7=
EXTT8=
EXTT9=
EXTT10=
EXTT11=
EXTT12=
EXTT13=
EXTT14=
EXTT15=
EXTT16=
PLAYORDER=
